<svg xmlns="http://www.w3.org/2000/svg" width="155.739" height="155.739" viewBox="0 0 155.739 155.739"><path d="M93.192 25.738c8.326 0 15.073 6.752 15.073 15.08 0 8.326-6.747 15.08-15.073 15.08-8.33 0-15.08-6.754-15.08-15.08 0-8.328 6.75-15.08 15.08-15.08zM101.102 73.074c5.354 0 9.692 4.34 9.692 9.69 0 5.357-4.338 9.698-9.692 9.698-5.356 0-9.693-4.34-9.693-9.697 0-5.352 4.336-9.69 9.692-9.69z"/><path d="M52.78 155.74h86.95s-25.232-20.28-24.7-42.514c.316-12.388 24.7-28.158 24.58-62.58-.077-17.31-16.866-46.088-45.372-49.675-28.514-3.59-49.852 2.686-59.176 20.265-9.335 17.57-10.042 33-9.325 35.86.726 2.877 3.77 8.256 3.77 8.256S15.16 87.406 16.048 90.99c.907 3.596 10.747 5.527 10.747 5.527s.892 2.497-.906 7.335c-1.794 4.846 3.34 10.468 4.88 12.43 1.52 1.954-2.157 8.062-.907 11.476 1.253 3.398 7.176 7.523 13.986 6.632 6.818-.902 15.565-2.504 18.603-3.054 6.86 16.145-9.672 24.405-9.672 24.405zm64.36-65.72l-2.946 4.526-2.867-1.883c-1.315 1.353-2.92 2.452-4.714 3.207l.708 3.37-5.275 1.1-.706-3.363c-1.97.032-3.865-.335-5.603-1.05l-1.883 2.87-4.527-2.954 1.877-2.872c-1.346-1.31-2.45-2.91-3.2-4.705l-3.375.705-1.11-5.285 3.38-.7c-.028-1.953.332-3.853 1.044-5.6l-2.87-1.88 2.95-4.523 2.877 1.88c1.313-1.36 2.91-2.46 4.712-3.213l-.708-3.37 5.28-1.11.708 3.374c1.952-.033 3.853.338 5.6 1.048l1.88-2.875 4.52 2.95-1.877 2.877c1.35 1.313 2.456 2.905 3.208 4.71l3.357-.7 1.11 5.28-3.364.7c.032 1.96-.338 3.858-1.05 5.605l2.865 1.88zM67.763 30.637l5.218 1.207c1.188-2.685 2.925-5.145 5.157-7.213L75.3 20.086l7.115-4.45 2.84 4.546c2.835-1.095 5.807-1.58 8.74-1.475l1.2-5.204 8.188 1.883-1.204 5.203c2.68 1.195 5.127 2.93 7.203 5.157l4.54-2.838 4.453 7.12-4.547 2.83c1.096 2.837 1.575 5.81 1.478 8.74l5.202 1.208-1.888 8.18-5.215-1.206c-1.182 2.68-2.917 5.146-5.15 7.212l2.843 4.54-7.124 4.448-2.83-4.54c-2.847 1.1-5.818 1.588-8.75 1.476l-1.205 5.204-8.177-1.888 1.195-5.204c-2.676-1.186-5.135-2.925-7.194-5.155l-4.55 2.84-4.45-7.12 4.55-2.835c-1.1-2.843-1.58-5.806-1.48-8.736l-5.21-1.204 1.888-8.184z"/></svg>